<svg width="512" height="512" viewBox="0 0 512 512" fill="none" xmlns="http://www.w3.org/2000/svg">
  <defs>
    <linearGradient id="folderBack" x1="129" y1="91" x2="175" y2="395" gradientUnits="userSpaceOnUse">
      <stop stop-color="#83C7FF"/>
      <stop offset="1" stop-color="#287AEC"/>
    </linearGradient>
    <linearGradient id="folderFront" x1="123" y1="144" x2="425" y2="411" gradientUnits="userSpaceOnUse">
      <stop stop-color="#EAF6FF"/>
      <stop offset="0.58" stop-color="#86BFF8"/>
      <stop offset="1" stop-color="#1D71E8"/>
    </linearGradient>
    <linearGradient id="arrowFill" x1="314" y1="214" x2="475" y2="214" gradientUnits="userSpaceOnUse">
      <stop stop-color="#9FD2FF"/>
      <stop offset="0.56" stop-color="#FFFFFF"/>
      <stop offset="1" stop-color="#3791F4"/>
    </linearGradient>
    <filter id="softShadow" x="67" y="61" width="418" height="361" filterUnits="userSpaceOnUse" color-interpolation-filters="sRGB">
      <feFlood flood-opacity="0" result="BackgroundImageFix"/>
      <feColorMatrix in="SourceAlpha" type="matrix" values="0 0 0 0 0 0 0 0 0 0 0 0 0 0 0 0 0 0 127 0" result="hardAlpha"/>
      <feOffset dy="10"/>
      <feGaussianBlur stdDeviation="12"/>
      <feColorMatrix type="matrix" values="0 0 0 0 0.176471 0 0 0 0 0.47451 0 0 0 0 0.909804 0 0 0 0.22 0"/>
      <feBlend mode="normal" in2="BackgroundImageFix" result="effect1_dropShadow_1_1"/>
      <feBlend mode="normal" in="SourceGraphic" in2="effect1_dropShadow_1_1" result="shape"/>
    </filter>
  </defs>

  <g filter="url(#softShadow)">
    <path d="M121 122C121 108.193 132.193 97 146 97H216.625C228.131 97 238.673 103.287 244.051 113.368L250.086 124.68C254.423 132.807 262.877 137.883 272.089 137.883H381C394.807 137.883 406 149.076 406 162.883V190H121V122Z" fill="url(#folderBack)"/>
    <rect x="121" y="144" width="306" height="236" rx="38" fill="url(#folderFront)"/>
    <rect x="139" y="163" width="272" height="198" rx="30" fill="url(#folderFront)" opacity="0.95"/>
  </g>

  <rect x="173" y="187" width="36" height="108" rx="7" fill="#F54E4E"/>
  <rect x="137" y="223" width="108" height="36" rx="7" fill="#F54E4E"/>

  <circle cx="298" cy="219" r="53" fill="#FBFDFF"/>
  <rect x="245" y="264" width="106" height="53" rx="18" fill="#FBFDFF"/>
  <path d="M200 383C209.712 311.277 270.982 257 345.5 257C420.018 257 481.288 311.277 491 383H200Z" fill="#FBFDFF" transform="translate(-19 0)"/>

  <path d="M325 197H406V176L475 232L406 288V267H325V197Z" fill="url(#arrowFill)"/>
  <path d="M344 288H423V267L487 320L423 373V352H344V288Z" fill="url(#arrowFill)"/>
</svg>
